<!-- icon666.com - MILLIONS vector ICONS FREE --><svg version="1.1" id="Capa_1" xmlns="http://www.w3.org/2000/svg" xmlns:xlink="http://www.w3.org/1999/xlink" x="0px" y="0px" viewBox="0 0 32.855 32.856" style="enable-background:new 0 0 32.855 32.856;" xml:space="preserve"><g><g><path d="M20.847,6.483c-3.535-2.486-6.046,0.993-7.941,0.993c-1.896,0-4.448-3.2-7.942-0.993 C1.018,8.975,2.379,24.74,6.772,27.151c2.353,1.292,2.292-8.483,6.263-8.123c3.972,0.361,2.668,8.571,4.924,7.759 C20.215,25.975,24.86,9.306,20.847,6.483z"></path><path d="M31.308,10.071c-1.532-0.957-0.903-2.155-2.931-3.332c-2.559-1.485-3.962,0-7.016-0.533 c3.137,1.482,1.77,10.339,1.062,12.089c2.544-0.669,3.801-2.01,4.686-1.808c0.585,0.133,1.541,1.03,2.012,0.941 c0.33-0.062-0.372-1.486-0.248-1.816c0.153-0.407,1.18-0.237,1.449-0.04c1.142,0.84-1.23,5.732-3.303,7.509 c-0.367,0.315-0.417-0.329-0.907,0.165c0,0.454,0.651,1.114,1.028,0.907C30.905,22.089,35.229,12.517,31.308,10.071z M27.479,9.239c-0.099,0.295-0.5,0.428-0.897,0.295c-0.397-0.133-0.64-0.48-0.541-0.776s0.5-0.428,0.896-0.295 C27.337,8.596,27.579,8.944,27.479,9.239z"></path><path d="M3.063,7.741c-2.394,1.527-3.781,8.198-2.68,12.164c0.168,0.606,0.632,0.42,0.798-0.331 c-1.438-4.978,0.99-8.129,0.99-8.129S2.409,9.096,3.063,7.741z"></path></g></g></svg>